<svg width="476" height="243" viewBox="0 0 476 243" fill="none" xmlns="http://www.w3.org/2000/svg">
<path fill-rule="evenodd" clip-rule="evenodd" d="M50 0C22.3858 0 0 22.3858 0 50V109H72.7067C77.4052 91.5021 91.3603 77.7946 109 73.4493V0H50Z" fill="#333333"/>
<path fill-rule="evenodd" clip-rule="evenodd" d="M134 172.551V243H193C220.614 243 243 220.614 243 193V134H171C167.159 152.92 152.636 167.96 134 172.551Z" fill="#333333"/>
<path fill-rule="evenodd" clip-rule="evenodd" d="M109 173.293C90.5213 168.331 76.2698 153.046 72.8078 134L54.5 134H0V193C0 220.614 22.3858 243 50 243H109V188.5V173.293Z" fill="#E9E9E9"/>
<path d="M286.779 152.305C285.988 153.252 284.87 153.989 283.425 154.517C281.979 155.034 280.378 155.293 278.62 155.293C276.774 155.293 275.153 154.893 273.757 154.092C272.37 153.281 271.296 152.109 270.534 150.576C269.782 149.043 269.396 147.241 269.377 145.171V143.721C269.377 141.592 269.733 139.751 270.446 138.198C271.169 136.636 272.204 135.444 273.552 134.624C274.909 133.794 276.496 133.379 278.312 133.379C280.842 133.379 282.819 133.984 284.245 135.195C285.671 136.396 286.516 138.149 286.779 140.454H282.502C282.307 139.233 281.872 138.34 281.198 137.773C280.534 137.207 279.616 136.924 278.444 136.924C276.95 136.924 275.812 137.485 275.031 138.608C274.25 139.731 273.854 141.401 273.845 143.618V144.98C273.845 147.217 274.27 148.906 275.119 150.049C275.969 151.191 277.214 151.763 278.854 151.763C280.505 151.763 281.682 151.411 282.385 150.708V147.031H278.386V143.794H286.779V152.305ZM294.748 151.47H304.079V155H290.354V133.672H294.748V151.47ZM323.195 144.819C323.195 146.919 322.824 148.76 322.082 150.342C321.34 151.924 320.275 153.145 318.889 154.004C317.512 154.863 315.93 155.293 314.143 155.293C312.375 155.293 310.798 154.868 309.411 154.019C308.024 153.169 306.95 151.958 306.188 150.386C305.427 148.804 305.041 146.987 305.031 144.937V143.882C305.031 141.782 305.407 139.937 306.159 138.345C306.921 136.743 307.99 135.518 309.367 134.668C310.754 133.809 312.336 133.379 314.113 133.379C315.891 133.379 317.468 133.809 318.845 134.668C320.231 135.518 321.301 136.743 322.053 138.345C322.814 139.937 323.195 141.777 323.195 143.867V144.819ZM318.742 143.853C318.742 141.616 318.342 139.917 317.541 138.755C316.74 137.593 315.598 137.012 314.113 137.012C312.639 137.012 311.501 137.588 310.7 138.74C309.899 139.883 309.494 141.562 309.484 143.779V144.819C309.484 146.997 309.885 148.687 310.686 149.888C311.486 151.089 312.639 151.689 314.143 151.689C315.617 151.689 316.75 151.113 317.541 149.961C318.332 148.799 318.732 147.109 318.742 144.893V143.853ZM326.389 155V133.672H333.859C336.447 133.672 338.41 134.17 339.748 135.166C341.086 136.152 341.755 137.603 341.755 139.517C341.755 140.562 341.486 141.484 340.949 142.285C340.412 143.076 339.665 143.657 338.708 144.028C339.802 144.302 340.661 144.854 341.286 145.684C341.921 146.514 342.238 147.529 342.238 148.73C342.238 150.781 341.584 152.334 340.275 153.389C338.967 154.443 337.102 154.98 334.68 155H326.389ZM330.783 145.713V151.47H334.548C335.583 151.47 336.389 151.226 336.965 150.737C337.551 150.239 337.844 149.556 337.844 148.687C337.844 146.733 336.833 145.742 334.812 145.713H330.783ZM330.783 142.607H334.035C336.252 142.568 337.36 141.685 337.36 139.956C337.36 138.989 337.077 138.296 336.511 137.876C335.954 137.446 335.07 137.231 333.859 137.231H330.783V142.607ZM357.59 150.605H349.885L348.42 155H343.747L351.687 133.672H355.759L363.742 155H359.069L357.59 150.605ZM351.071 147.046H356.403L353.723 139.062L351.071 147.046ZM370.129 151.47H379.46V155H365.734V133.672H370.129V151.47ZM274.577 190H270.183V168.672H274.577V190ZM296.008 190H291.613L283.059 175.967V190H278.664V168.672H283.059L291.628 182.734V168.672H296.008V190ZM315.461 172.231H308.928V190H304.533V172.231H298.088V168.672H315.461V172.231ZM330.812 180.757H322.375V186.47H332.277V190H317.98V168.672H332.248V172.231H322.375V177.314H330.812V180.757ZM339.25 186.47H348.581V190H334.855V168.672H339.25V186.47ZM355.51 186.47H364.841V190H351.115V168.672H355.51V186.47ZM372.048 190H367.653V168.672H372.048V190ZM393.01 187.305C392.219 188.252 391.101 188.989 389.655 189.517C388.21 190.034 386.608 190.293 384.851 190.293C383.005 190.293 381.384 189.893 379.987 189.092C378.601 188.281 377.526 187.109 376.765 185.576C376.013 184.043 375.627 182.241 375.607 180.171V178.721C375.607 176.592 375.964 174.751 376.677 173.198C377.399 171.636 378.435 170.444 379.782 169.624C381.14 168.794 382.727 168.379 384.543 168.379C387.072 168.379 389.05 168.984 390.476 170.195C391.901 171.396 392.746 173.149 393.01 175.454H388.732C388.537 174.233 388.103 173.34 387.429 172.773C386.765 172.207 385.847 171.924 384.675 171.924C383.181 171.924 382.043 172.485 381.262 173.608C380.48 174.731 380.085 176.401 380.075 178.618V179.98C380.075 182.217 380.5 183.906 381.35 185.049C382.199 186.191 383.444 186.763 385.085 186.763C386.735 186.763 387.912 186.411 388.615 185.708V182.031H384.616V178.794H393.01V187.305ZM409.416 180.757H400.979V186.47H410.881V190H396.584V168.672H410.852V172.231H400.979V177.314H409.416V180.757ZM430.803 190H426.408L417.854 175.967V190H413.459V168.672H417.854L426.423 182.734V168.672H430.803V190ZM450.256 172.231H443.723V190H439.328V172.231H432.883V168.672H450.256V172.231ZM275.646 203.672L281.125 219.141L286.574 203.672H292.346V225H287.937V219.17L288.376 209.106L282.619 225H279.602L273.859 209.121L274.299 219.17V225H269.904V203.672H275.646ZM308.488 220.605H300.783L299.318 225H294.646L302.585 203.672H306.657L314.641 225H309.968L308.488 220.605ZM301.97 217.046H307.302L304.621 209.062L301.97 217.046ZM333.977 225H329.582L321.027 210.967V225H316.633V203.672H321.027L329.597 217.734V203.672H333.977V225ZM350.119 220.605H342.414L340.949 225H336.276L344.216 203.672H348.288L356.271 225H351.599L350.119 220.605ZM343.601 217.046H348.933L346.252 209.062L343.601 217.046ZM374.816 222.305C374.025 223.252 372.907 223.989 371.462 224.517C370.017 225.034 368.415 225.293 366.657 225.293C364.812 225.293 363.19 224.893 361.794 224.092C360.407 223.281 359.333 222.109 358.571 220.576C357.819 219.043 357.434 217.241 357.414 215.171V213.721C357.414 211.592 357.771 209.751 358.483 208.198C359.206 206.636 360.241 205.444 361.589 204.624C362.946 203.794 364.533 203.379 366.35 203.379C368.879 203.379 370.856 203.984 372.282 205.195C373.708 206.396 374.553 208.149 374.816 210.454H370.539C370.344 209.233 369.909 208.34 369.235 207.773C368.571 207.207 367.653 206.924 366.481 206.924C364.987 206.924 363.85 207.485 363.068 208.608C362.287 209.731 361.892 211.401 361.882 213.618V214.98C361.882 217.217 362.307 218.906 363.156 220.049C364.006 221.191 365.251 221.763 366.892 221.763C368.542 221.763 369.719 221.411 370.422 220.708V217.031H366.423V213.794H374.816V222.305ZM391.223 215.757H382.785V221.47H392.688V225H378.391V203.672H392.658V207.231H382.785V212.314H391.223V215.757ZM401.008 203.672L406.486 219.141L411.936 203.672H417.707V225H413.298V219.17L413.737 209.106L407.98 225H404.963L399.221 209.121L399.66 219.17V225H395.266V203.672H401.008ZM434.377 215.757H425.939V221.47H435.842V225H421.545V203.672H435.812V207.231H425.939V212.314H434.377V215.757ZM455.764 225H451.369L442.814 210.967V225H438.42V203.672H442.814L451.384 217.734V203.672H455.764V225ZM475.217 207.231H468.684V225H464.289V207.231H457.844V203.672H475.217V207.231Z" fill="#333333"/>
<path d="M216.117 90.2188C212.953 94.0078 208.48 96.957 202.699 99.0664C196.918 101.137 190.512 102.172 183.48 102.172C176.098 102.172 169.613 100.57 164.027 97.3672C158.48 94.125 154.184 89.4375 151.137 83.3047C148.129 77.1719 146.586 69.9648 146.508 61.6836V55.8828C146.508 47.3672 147.934 40.0039 150.785 33.793C153.676 27.543 157.816 22.7773 163.207 19.4961C168.637 16.1758 174.984 14.5156 182.25 14.5156C192.367 14.5156 200.277 16.9375 205.98 21.7812C211.684 26.5859 215.062 33.5977 216.117 42.8164H199.008C198.227 37.9336 196.488 34.3594 193.793 32.0938C191.137 29.8281 187.465 28.6953 182.777 28.6953C176.801 28.6953 172.25 30.9414 169.125 35.4336C166 39.9258 164.418 46.6055 164.379 55.4727V60.9219C164.379 69.8672 166.078 76.625 169.477 81.1953C172.875 85.7656 177.855 88.0508 184.418 88.0508C191.02 88.0508 195.727 86.6445 198.539 83.832V69.125H182.543V56.1758H216.117V90.2188ZM249.105 101H231.527V15.6875H249.105V101ZM288.422 15.6875L310.336 77.5625L332.133 15.6875H355.219V101H337.582V77.6797L339.34 37.4258L316.312 101H304.242L281.273 37.4844L283.031 77.6797V101H265.453V15.6875H288.422Z" fill="#333333"/>
</svg>
