<svg width="34" height="37" viewBox="0 0 34 37" fill="none" xmlns="http://www.w3.org/2000/svg">
<path d="M7.71875 15.6172L15.3125 28.9766L0.6875 27.4297C0.5 27.4297 0.359375 27.3359 0.265625 27.1484C0.171875 26.9609 0.171875 26.7734 0.265625 26.5859L7.71875 15.6172ZM0.6875 22.6484C0.640625 22.7891 0.546875 22.8359 0.40625 22.7891C0.265625 22.7422 0.195312 22.6484 0.195312 22.5078V11.1172C0.195312 10.9766 0.242188 10.8828 0.335938 10.8359C0.429688 10.7891 0.523438 10.7891 0.617188 10.8359L6.03125 14.0703L0.6875 22.6484ZM1.46094 30.3125C1.32031 30.2188 1.27344 30.1016 1.32031 29.9609C1.36719 29.8203 1.46094 29.75 1.60156 29.75L15.9453 31.2969V35.9375C15.9453 36.125 15.8516 36.2656 15.6641 36.3594C15.5234 36.5 15.3594 36.5234 15.1719 36.4297L1.46094 30.3125ZM7.15625 12.1719L1.46094 8.72656C1.36719 8.67969 1.32031 8.60937 1.32031 8.51562C1.32031 8.42188 1.36719 8.32812 1.46094 8.23438L12.0781 1.34375C12.3125 1.20312 12.5234 1.25 12.7109 1.48438C12.9453 1.67188 12.9688 1.88281 12.7812 2.11719L7.15625 12.1719ZM17.0703 12.875H9.40625L16.0859 1.0625C16.3203 0.6875 16.6484 0.5 17.0703 0.5C17.4922 0.5 17.8203 0.6875 18.0547 1.0625L24.7344 12.875H17.0703ZM33.5234 10.8359C33.6172 10.7891 33.7109 10.7891 33.8047 10.8359C33.8984 10.8828 33.9453 10.9766 33.9453 11.1172V22.5078C33.9453 22.6484 33.875 22.7422 33.7344 22.7891C33.5938 22.8359 33.5 22.7891 33.4531 22.6484L28.1094 14.0703L33.5234 10.8359ZM26.9844 12.1719L21.3594 2.11719C21.2656 1.92969 21.2422 1.76562 21.2891 1.625C21.3359 1.4375 21.4297 1.32031 21.5703 1.27344C21.7578 1.22656 21.9219 1.25 22.0625 1.34375L32.6797 8.23438C32.7734 8.32812 32.8203 8.42188 32.8203 8.51562C32.8203 8.60937 32.7734 8.67969 32.6797 8.72656L26.9844 12.1719ZM32.5391 29.75C32.6797 29.75 32.7734 29.8203 32.8203 29.9609C32.8672 30.1016 32.8203 30.2188 32.6797 30.3125L18.9688 36.4297C18.875 36.4766 18.7812 36.5 18.6875 36.5C18.5938 36.5 18.5 36.4766 18.4062 36.4297C18.3594 36.3828 18.3125 36.3125 18.2656 36.2188C18.2188 36.125 18.1953 36.0312 18.1953 35.9375V31.2969L32.5391 29.75ZM26.4219 15.6172L33.875 26.5859C33.9688 26.7734 33.9688 26.9609 33.875 27.1484C33.7812 27.3359 33.6406 27.4297 33.4531 27.4297L18.8281 28.9766L26.4219 15.6172ZM17.0703 15.125H24.1016L17.0703 27.5L10.0391 15.125H17.0703Z" fill="#333333"/>
</svg>
